<svg xmlns="http://www.w3.org/2000/svg" width="640" height="480"><g><title>Layer 1</title><rect id="svg_4" width="41" height="41" x="247" y="105" fill="#7f00ff" stroke="#000" stroke-width="4"/><rect id="svg_5" width="41" height="41" x="407" y="105" fill="#7f00ff" stroke="#000" stroke-width="4"/><ellipse id="svg_6" cx="347" cy="124" fill="#ff3f3f" stroke="#000" stroke-dasharray="null" stroke-linecap="null" stroke-linejoin="null" stroke-width="4" rx="19.5" ry="19.5"/><ellipse id="svg_7" cx="508.5" cy="124" fill="#ff3f3f" stroke="#000" stroke-dasharray="null" stroke-linecap="null" stroke-linejoin="null" stroke-width="4" rx="19.5" ry="19.5"/><line id="svg_11" x1="206" x2="245.812" y1="125" y2="125" fill="none" stroke="#000" stroke-dasharray="null" stroke-linecap="null" stroke-linejoin="null" stroke-width="5"/><ellipse id="svg_8" cx="185.5" cy="124" fill="#ff3f3f" stroke="#000" stroke-dasharray="null" stroke-linecap="null" stroke-linejoin="null" stroke-width="4" rx="19.5" ry="19.5"/><text id="svg_9" x="87" y="129" fill="#000" stroke="#000" stroke-dasharray="null" stroke-linecap="null" stroke-linejoin="null" stroke-width="0" cursor="move" font-family="serif" font-size="24" text-anchor="middle" xml:space="preserve">Factor Graph</text><line id="svg_20" x1="268" x2="268" y1="148" y2="183.5" fill="none" stroke="#000" stroke-dasharray="null" stroke-linecap="null" stroke-linejoin="null" stroke-width="5"/><ellipse id="svg_15" cx="267.5" cy="205" fill="#ff3f3f" stroke="#000" stroke-dasharray="null" stroke-linecap="null" stroke-linejoin="null" stroke-width="4" rx="19.5" ry="19.5"/><ellipse id="svg_16" cx="428.5" cy="205" fill="#ff3f3f" stroke="#000" stroke-dasharray="null" stroke-linecap="null" stroke-linejoin="null" stroke-width="4" rx="19.5" ry="19.5"/><line id="svg_17" x1="289.594" x2="329.406" y1="125" y2="125" fill="none" stroke="#000" stroke-dasharray="null" stroke-linecap="null" stroke-linejoin="null" stroke-width="5"/><line id="svg_18" x1="368.594" x2="408.406" y1="125" y2="125" fill="none" stroke="#000" stroke-dasharray="null" stroke-linecap="null" stroke-linejoin="null" stroke-width="5"/><line id="svg_19" x1="448.594" x2="488.406" y1="125" y2="125" fill="none" stroke="#000" stroke-dasharray="null" stroke-linecap="null" stroke-linejoin="null" stroke-width="5"/><line id="svg_21" x1="428.5" x2="428.5" y1="148" y2="183.5" fill="none" stroke="#000" stroke-dasharray="null" stroke-linecap="null" stroke-linejoin="null" stroke-width="5"/><path id="svg_29" fill="#000" stroke="#000" stroke-dasharray="null" stroke-linecap="null" stroke-linejoin="null" stroke-width="5" d="m514.606934,89.510681c-0.998474,-2.252289 -4.832428,-3.3703 -12.389893,-3.612823l-5.11026,-0.164093l0,-1.970947l0,-1.970062l3.857239,0c4.547272,0 7.798676,-0.404846 10.451874,-1.30014c1.56543,-0.529266 2.085693,-0.86557 2.793396,-1.810486l0.869568,-1.1604l2.494507,3.220642l2.494202,3.220581l-2.522217,3.242249l-2.522156,3.243164l-0.41626,-0.937683z" transform="rotate(-90.7724 508.587 83.9851)"/><text id="svg_22" x="510" y="65" fill="#000" stroke="#000" stroke-dasharray="null" stroke-linecap="null" stroke-linejoin="null" stroke-width="0" font-family="serif" font-size="20" text-anchor="middle" xml:space="preserve">variable</text><path id="svg_28" fill="#000" stroke="#000" stroke-dasharray="null" stroke-linecap="null" stroke-linejoin="null" stroke-width="5" d="m272.889771,88.616196c-0.998505,-2.252266 -4.832428,-3.370277 -12.389893,-3.612816l-5.11026,-0.164101l0,-1.970947l0,-1.970055l3.857239,0c4.547272,0 7.798676,-0.404831 10.451874,-1.300148c1.565399,-0.529251 2.085663,-0.865562 2.793396,-1.810463l0.869568,-1.160393l2.494507,3.220612l2.494171,3.220604l-2.522186,3.242249l-2.522186,3.243149l-0.416229,-0.937691z" transform="rotate(-90.7724 266.87 83.0906)"/><text id="svg_23" x="268" y="64" fill="#000" stroke="#000" stroke-dasharray="null" stroke-linecap="null" stroke-linejoin="null" stroke-width="0" font-family="serif" font-size="21" text-anchor="middle" xml:space="preserve">factor node</text><path id="svg_30" fill="#000" stroke="#000" stroke-dasharray="null" stroke-linecap="null" stroke-linejoin="null" stroke-width="5" d="m317.487488,268.65448l33.032135,-32.92128l33.032013,32.92128l-16.515961,0l0,33.078705l-33.032104,0l0,-33.078705l-16.516083,0z" transform="rotate(-180 350.52 268.733)"/><path id="svg_46" fill="#ffff56" stroke="#000" stroke-dasharray="null" stroke-linecap="null" stroke-linejoin="null" stroke-width="4" d="m170.410004,360.000031l19.428528,-34.000031l19.428543,34.000031l-38.857071,0z"/><line id="svg_35" x1="200" x2="260.312" y1="341" y2="341" fill="none" stroke="#000" stroke-dasharray="null" stroke-linecap="null" stroke-linejoin="null" stroke-width="5"/><line id="svg_37" x1="272.5" x2="272.5" y1="362.194" y2="401" fill="none" stroke="#000" stroke-dasharray="null" stroke-linecap="null" stroke-linejoin="null" stroke-width="5"/><line id="svg_40" x1="283" x2="339.906" y1="341" y2="341" fill="none" stroke="#000" stroke-dasharray="null" stroke-linecap="null" stroke-linejoin="null" stroke-width="5"/><line id="svg_41" x1="361" x2="420.906" y1="341" y2="341" fill="none" stroke="#000" stroke-dasharray="null" stroke-linecap="null" stroke-linejoin="null" stroke-width="5"/><line id="svg_42" x1="440" x2="502.906" y1="341" y2="341" fill="none" stroke="#000" stroke-dasharray="null" stroke-linecap="null" stroke-linejoin="null" stroke-width="5"/><line id="svg_43" x1="433" x2="433" y1="362.194" y2="401" fill="none" stroke="#000" stroke-dasharray="null" stroke-linecap="null" stroke-linejoin="null" stroke-width="5"/><path id="svg_48" fill="#ffff56" stroke="#000" stroke-dasharray="null" stroke-linecap="null" stroke-linejoin="null" stroke-width="4" d="m331.071472,360.000031l19.428528,-34.000031l19.428558,34.000031l-38.857086,0z"/><path id="svg_49" fill="#ffff56" stroke="#000" stroke-dasharray="null" stroke-linecap="null" stroke-linejoin="null" stroke-width="4" d="m494.071472,360.000031l19.428528,-34.000031l19.428589,34.000031l-38.857117,0z"/><path id="svg_50" fill="#ffff56" stroke="#000" stroke-dasharray="null" stroke-linecap="null" stroke-linejoin="null" stroke-width="4" d="m252.071472,360.000031l19.428528,-34.000031l19.428558,34.000031l-38.857086,0z"/><path id="svg_51" fill="#ffff56" stroke="#000" stroke-dasharray="null" stroke-linecap="null" stroke-linejoin="null" stroke-width="4" d="m412.071472,360.000031l19.428528,-34.000031l19.428558,34.000031l-38.857086,0z"/><path id="svg_52" fill="#ffff56" stroke="#000" stroke-dasharray="null" stroke-linecap="null" stroke-linejoin="null" stroke-width="4" d="m413.5,436.000031l19.428528,-34.000031l19.428558,34.000031l-38.857086,0z"/><path id="svg_53" fill="#ffff56" stroke="#000" stroke-dasharray="null" stroke-linecap="null" stroke-linejoin="null" stroke-width="4" d="m253.071472,436.000031l19.428528,-34.000031l19.428558,34.000031l-38.857086,0z"/><text id="svg_54" x="94" y="334" fill="#000" stroke="#000" stroke-dasharray="null" stroke-linecap="null" stroke-linejoin="null" stroke-width="0" font-family="serif" font-size="24" text-anchor="middle" xml:space="preserve">Distributed</text><text id="svg_55" x="70" y="367" fill="#000" stroke="#000" stroke-dasharray="null" stroke-linecap="null" stroke-linejoin="null" stroke-width="0" font-family="serif" font-size="24" text-anchor="middle" xml:space="preserve">Graph</text><path id="svg_56" fill="#000" stroke="#000" stroke-dasharray="null" stroke-linecap="null" stroke-linejoin="null" stroke-width="5" d="m518.607178,310.510834c-0.998535,-2.252289 -4.83252,-3.3703 -12.389923,-3.612823l-5.110291,-0.164093l0,-1.970947l0,-1.970062l3.857269,0c4.547241,0 7.798645,-0.404846 10.451843,-1.30014c1.565491,-0.529266 2.085693,-0.86557 2.793396,-1.810486l0.869629,-1.1604l2.494446,3.220642l2.494202,3.220581l-2.522217,3.242249l-2.522095,3.243164l-0.41626,-0.937683z" transform="rotate(-90.7724 512.587 304.985)"/><text id="svg_57" x="512" y="285" fill="#000" stroke="#000" stroke-dasharray="null" stroke-linecap="null" stroke-linejoin="null" stroke-width="0" font-family="serif" font-size="20" text-anchor="middle" xml:space="preserve">GraphLab vertex</text></g></svg>